<svg width="490" height="483" viewBox="0 0 490 483" fill="none" xmlns="http://www.w3.org/2000/svg">
<path d="M178.81 322.497C156.455 325.45 139.471 302.818 148.553 282.179L260.018 28.8742C268.927 8.62889 296.341 5.47249 309.617 23.1635L472.514 240.222C485.79 257.913 475.1 283.353 453.171 286.25L178.81 322.497Z" fill="#FFE0B1" fill-opacity="0.04"/>
<path d="M178.81 322.496C156.455 325.45 139.471 302.818 148.553 282.179L260.018 28.8736C268.857 8.78671 295.914 5.52267 309.304 22.7525L309.617 23.1633L308.017 24.3638C295.755 8.02509 270.539 10.7895 262.046 29.2408L261.848 29.6793L150.383 282.985C141.996 302.046 157.494 322.933 178.061 320.573L178.548 320.514L452.909 284.267C473.321 281.57 483.272 257.89 470.914 241.422L472.513 240.222L472.82 240.637C485.522 258.169 475.095 282.982 453.683 286.178L453.171 286.25L178.81 322.496ZM308.017 24.3638L309.617 23.1633L472.513 240.222L470.914 241.422L308.017 24.3638Z" fill="#FBB040"/>
<path d="M125.748 361.741C103.393 364.695 86.4085 342.063 95.4907 321.424L206.955 68.1187C215.864 47.8734 243.278 44.717 256.555 62.408L419.451 279.466C432.728 297.157 422.037 322.598 400.109 325.495L125.748 361.741Z" fill="#FFE0B1" fill-opacity="0.04"/>
<path d="M125.747 361.741C103.393 364.694 86.4084 342.063 95.4903 321.424L206.955 68.1181C215.795 48.0312 242.851 44.7672 256.241 61.997L256.554 62.4078L254.955 63.6083C242.693 47.2696 217.476 50.034 208.983 68.4853L208.786 68.9238L97.3208 322.229C88.9332 341.291 104.431 362.178 124.999 359.818L125.485 359.758L399.847 323.511C420.258 320.815 430.209 297.134 417.851 280.667L419.451 279.466L419.758 279.882C432.459 297.414 422.033 322.226 400.621 325.423L400.109 325.494L125.747 361.741ZM254.955 63.6083L256.554 62.4078L419.451 279.466L417.851 280.667L254.955 63.6083Z" fill="#FBB040"/>
<path d="M51.2078 390.589C48.4437 390.955 46.3437 388.156 47.4666 385.604L61.2487 354.284C62.3502 351.781 65.7398 351.391 67.3814 353.578L87.5227 380.416C89.1643 382.604 87.8425 385.749 85.1311 386.108L51.2078 390.589Z" fill="#FFE0B1"/>
</svg>
