<svg width="482" height="469" viewBox="0 0 482 469" fill="none" xmlns="http://www.w3.org/2000/svg">
<path d="M315.814 307.361C338.36 307.731 352.637 283.301 341.248 263.84L201.468 24.9893C190.297 5.89924 162.701 5.9076 151.541 25.0045L14.6128 259.312C3.4526 278.409 16.9902 302.455 39.106 302.818L315.814 307.361Z" fill="#FFE0B1" fill-opacity="0.04"/>
<path d="M315.814 307.361C338.36 307.731 352.637 283.301 341.248 263.84L201.468 24.9887C190.384 6.04805 163.132 5.90845 151.806 24.5602L151.542 25.0042L153.269 26.0134C163.576 8.37619 188.943 8.23048 199.496 25.586L199.742 25.999L339.522 264.85C350.04 282.824 337.04 305.351 316.337 305.365L315.847 305.361L39.139 300.818C18.5528 300.48 5.9518 278.097 16.34 260.321L14.6132 259.312L14.3559 259.76C3.74894 278.633 16.952 302.086 38.5894 302.806L39.106 302.818L315.814 307.361ZM153.269 26.0134L151.542 25.0042L14.6132 259.312L16.34 260.321L153.269 26.0134Z" fill="#FBB040"/>
<path d="M373.03 340.261C395.577 340.631 409.854 316.201 398.464 296.739L258.685 57.889C247.513 38.7989 219.918 38.8073 208.758 57.9042L71.8296 292.212C60.6694 311.309 74.207 335.355 96.3228 335.718L373.03 340.261Z" fill="#FFE0B1" fill-opacity="0.04"/>
<path d="M373.031 340.261C395.577 340.631 409.854 316.201 398.465 296.739L258.685 57.8884C247.601 38.9477 220.348 38.8081 209.023 57.4598L208.759 57.9039L210.486 58.913C220.793 41.2758 246.16 41.1301 256.713 58.4856L256.959 58.8987L396.739 297.75C407.257 315.724 394.257 338.25 373.554 338.265L373.064 338.261L96.3558 333.718C75.7696 333.38 63.1686 310.997 73.5568 293.221L71.83 292.212L71.5727 292.66C60.9657 311.533 74.1688 334.985 95.8062 335.705L96.3228 335.718L373.031 340.261ZM210.486 58.913L208.759 57.9039L71.83 292.212L73.5568 293.221L210.486 58.913Z" fill="#FBB040"/>
<path d="M450.388 360.37C453.176 360.416 454.941 357.395 453.533 354.989L436.25 325.456C434.868 323.096 431.456 323.097 430.076 325.458L413.146 354.429C411.766 356.79 413.44 359.763 416.174 359.808L450.388 360.37Z" fill="#FFE0B1"/>
</svg>
