<svg width="151" height="136" viewBox="0 0 151 136" fill="none" xmlns="http://www.w3.org/2000/svg">
<path d="M67.1824 15.9027C76.2199 1.06293 92.9776 -3.0561 106.286 2.15112C118.398 6.88276 129.511 20.7956 125.759 39.4158C126.222 39.5528 126.701 39.7141 127.188 39.843C142.141 43.7686 152.208 58.165 150.883 73.7464C149.614 88.691 138.069 100.895 123.339 102.805C121.942 102.991 120.521 103.087 119.116 103.087C111.356 103.112 103.604 103.087 95.8437 103.136C95.1332 103.136 94.3109 103.434 93.7281 103.861C90.9817 105.876 89.7921 108.706 89.8001 112.099C89.8081 115.332 89.8161 118.564 89.8001 121.796C89.7762 125.045 88.6585 126.528 85.5368 127.447C85.3852 128.237 85.2894 129.075 85.0498 129.881C84.2116 132.702 81.7366 134.766 78.8386 134.919C76.6431 135.04 74.4316 135.048 72.2441 134.935C68.8111 134.758 66.1845 132.251 65.7054 128.761C65.5777 127.802 65.2663 127.358 64.3003 127.06C62.2086 126.423 61.1388 124.674 61.1069 122.127C61.0669 118.572 61.1069 115.025 61.0909 111.471C61.0909 108.295 59.9013 105.675 57.2747 103.869C56.644 103.434 55.7738 103.136 55.0153 103.128C47.1514 103.071 39.2875 103.12 31.4316 103.087C15.7118 103.031 2.2673 91.0044 0.279374 75.2457C-1.98798 57.2864 9.76396 41.7292 27.5994 39.0934C27.6473 39.0934 27.6873 39.0531 27.8629 38.9644C27.3041 28.5338 31.0883 20.1023 40.1418 14.7258C49.2272 9.33322 58.3365 10.2038 67.1904 15.9027H67.1824ZM99.7318 98.0172C106.183 98.0172 112.41 98.0414 118.645 98.0011C120.314 97.985 122.014 97.8963 123.651 97.59C137.973 94.8735 147.155 82.3875 145.654 67.7412C144.448 55.9403 134.804 45.8402 123.22 44.2603C120.066 43.825 119.411 42.7932 120.338 39.6496C121.551 35.5144 121.799 31.3148 121 27.0829C118.749 15.274 109.703 6.76991 97.3047 5.27062C86.918 4.01315 76.0123 9.56698 70.7511 20.2232C69.338 23.0929 67.9169 23.3508 65.5218 21.3034C59.8774 16.475 53.4346 15.1611 46.4329 17.4262C37.0521 20.457 31.4875 30.1137 33.2519 39.9398C33.7628 42.7932 33.0443 43.7605 30.2341 44.0024C29.6592 44.0507 29.0924 44.1394 28.5176 44.2039C13.149 45.9369 2.66649 60.5188 5.50069 75.7132C8.00755 89.1665 18.8094 97.985 32.3577 98.0172C38.1778 98.0333 43.9899 98.0172 49.81 98.0172C50.2411 98.0172 50.6802 97.9527 51.1991 97.9124C40.4132 82.8066 44.7483 65.2585 55.4544 55.8758C66.8391 45.8966 82.8543 45.5581 94.5743 54.9004C105.52 63.6221 111.101 82.0731 99.7398 98.0172H99.7318ZM66.1445 108.867C72.1403 108.867 78.16 108.883 84.1716 108.827C84.5229 108.827 85.0818 108.319 85.1776 107.956C86.1117 104.369 88.2114 101.693 91.0296 99.3795C98.3985 93.3259 101.768 85.4828 100.674 75.8744C98.9334 60.5994 84.1397 50.322 69.3859 54.0702C57.9214 56.9882 49.7062 67.717 50.0255 79.6468C50.2411 87.7237 53.5783 94.3818 59.9013 99.3472C62.8792 101.685 65.0188 104.442 65.8491 108.19C65.897 108.391 66.0088 108.577 66.1366 108.867H66.1445ZM66.3441 122.127H84.5389V114.195H66.3441V122.127ZM80.2197 127.511H70.7351C70.7351 129.027 71.4537 129.776 72.8029 129.817C74.5833 129.873 76.3636 129.873 78.136 129.817C79.4772 129.768 80.2117 129.043 80.2117 127.511H80.2197Z" fill="black"/>
<path d="M99.7315 98.0172C111.092 82.0731 105.512 63.6221 94.5661 54.9004C82.8461 45.558 66.8308 45.8966 55.4461 55.8758C44.7401 65.2584 40.4049 82.8066 51.1909 97.9124C50.6719 97.9527 50.2328 98.0172 49.8017 98.0172C43.9816 98.0172 38.1695 98.0333 32.3494 98.0172C18.8091 97.9849 7.99928 89.1665 5.49241 75.7132C2.65821 60.5187 13.1407 45.9288 28.5093 44.2038C29.0841 44.1393 29.651 44.0507 30.2258 44.0023C33.028 43.7605 33.7545 42.7932 33.2436 39.9397C31.4792 30.1137 37.0438 20.4489 46.4246 17.4261C53.4263 15.1691 59.8691 16.475 65.5135 21.3033C67.9086 23.3508 69.3217 23.0928 70.7428 20.2232C76.0041 9.56693 86.9177 4.0131 97.2965 5.27057C109.687 6.76987 118.741 15.2739 120.992 27.0829C121.798 31.3067 121.551 35.5144 120.329 39.6495C119.403 42.7932 120.058 43.825 123.211 44.2603C134.796 45.8402 144.44 55.9402 145.645 67.7411C147.138 82.3874 137.965 94.8735 123.643 97.59C122.006 97.9043 120.313 97.993 118.637 98.001C112.402 98.0494 106.174 98.0172 99.7235 98.0172H99.7315ZM51.9014 52.6918C51.6619 51.9421 51.6459 51.4343 51.3904 51.1602C49.8017 49.4836 48.2609 47.7505 46.5045 46.2674C45.5065 45.4291 44.285 45.8563 43.4387 46.8477C42.5685 47.8553 42.5046 49.0403 43.3749 50.0237C44.7321 51.5552 46.1452 53.0787 47.7259 54.3523C48.3088 54.8198 49.5782 54.8923 50.2967 54.586C51.0152 54.2797 51.4463 53.2641 51.9014 52.6918ZM35.6467 76.3419C34.7046 76.3419 33.7705 76.2935 32.8284 76.35C31.3914 76.4386 30.4653 77.3817 30.4014 78.7279C30.3455 80.074 31.2078 81.2992 32.557 81.3799C34.5849 81.5008 36.6287 81.5008 38.6565 81.3799C40.0137 81.2992 40.8919 80.0982 40.852 78.7601C40.8041 77.414 39.878 76.4386 38.4569 76.35C37.5228 76.2855 36.5808 76.3419 35.6387 76.3338L35.6467 76.3419ZM115.22 76.3419C115.22 76.3419 115.22 76.3419 115.22 76.35C114.23 76.35 113.232 76.2935 112.242 76.3661C110.853 76.4628 109.871 77.5026 109.839 78.8165C109.807 80.066 110.813 81.3315 112.13 81.404C114.11 81.5088 116.098 81.5088 118.078 81.404C119.411 81.3396 120.401 80.1143 120.393 78.8488C120.377 77.4785 119.363 76.4467 117.878 76.358C116.992 76.3016 116.106 76.35 115.212 76.35L115.22 76.3419ZM72.8824 38.6581C72.8824 39.6092 72.8266 40.5604 72.8984 41.5035C73.0022 42.9705 73.9363 43.8895 75.2696 43.9378C76.6108 43.9862 77.7924 43.1398 77.8802 41.7453C78.008 39.6979 78.008 37.6263 77.8802 35.5789C77.7924 34.1924 76.6188 33.3299 75.2775 33.3783C73.9363 33.4267 73.0022 34.3375 72.8984 35.8046C72.8345 36.7477 72.8824 37.6988 72.8824 38.65V38.6581ZM107.907 47.9279C107.627 47.5813 107.196 46.5817 106.486 46.2916C105.767 45.9933 104.506 46.0739 103.931 46.5414C102.35 47.8231 100.889 49.2982 99.6357 50.9023C99.1726 51.4907 99.0768 52.8046 99.4121 53.4817C99.7554 54.1749 100.793 54.8037 101.6 54.9165C103.141 55.1261 107.915 50.0962 107.915 47.9359L107.907 47.9279Z" fill="#FBB040"/>
<path d="M66.3438 122.135V114.203H84.5385V122.135H66.3438Z" fill="white"/>
<path d="M51.9021 52.6917C51.447 53.264 51.0159 54.2797 50.2973 54.586C49.5788 54.8923 48.3094 54.8278 47.7266 54.3522C46.1458 53.0787 44.7407 51.5552 43.3755 50.0236C42.5053 49.0402 42.5692 47.8634 43.4394 46.8477C44.2936 45.8562 45.5151 45.429 46.5051 46.2673C48.2535 47.7505 49.8024 49.4836 51.3911 51.1602C51.6466 51.4343 51.6625 51.9421 51.9021 52.6917Z" fill="black"/>
<path d="M35.6556 76.35C36.5977 76.35 37.5398 76.3016 38.4738 76.358C39.8949 76.4467 40.821 77.4301 40.8689 78.7682C40.9168 80.1063 40.0307 81.3154 38.6734 81.3879C36.6456 81.5008 34.6018 81.5088 32.5739 81.3879C31.2247 81.3073 30.3545 80.0821 30.4183 78.736C30.4742 77.3898 31.4003 76.4386 32.8454 76.358C33.7794 76.3016 34.7215 76.35 35.6636 76.358L35.6556 76.35Z" fill="black"/>
<path d="M115.228 76.342C116.114 76.342 117.009 76.3017 117.895 76.3501C119.38 76.4387 120.394 77.4705 120.41 78.8408C120.418 80.1144 119.428 81.3316 118.094 81.3961C116.114 81.4928 114.126 81.4928 112.147 81.3961C110.829 81.3235 109.823 80.058 109.855 78.8086C109.887 77.5027 110.861 76.4548 112.258 76.3581C113.248 76.2936 114.238 76.342 115.236 76.342C115.236 76.342 115.236 76.342 115.236 76.3339L115.228 76.342Z" fill="black"/>
<path d="M72.883 38.658C72.883 37.7069 72.8271 36.7557 72.899 35.8126C73.0028 34.3456 73.9369 33.4347 75.2781 33.3863C76.6194 33.338 77.793 34.2005 77.8808 35.5869C78.0085 37.6343 78.0085 39.7059 77.8808 41.7534C77.793 43.1398 76.6114 43.9942 75.2701 43.9459C73.9369 43.8975 73.0028 42.9786 72.899 41.5115C72.8351 40.5684 72.883 39.6173 72.891 38.6661L72.883 38.658Z" fill="black"/>
<path d="M107.907 47.9278C107.907 50.0881 103.133 55.1179 101.592 54.9084C100.786 54.7955 99.7479 54.1668 99.4046 53.4735C99.0693 52.7964 99.1651 51.4826 99.6281 50.8941C100.89 49.2981 102.351 47.8149 103.923 46.5333C104.506 46.0658 105.76 45.9851 106.478 46.2834C107.189 46.5816 107.62 47.5731 107.899 47.9197L107.907 47.9278Z" fill="black"/>
<path d="M85.1301 61.9293C86.0163 62.3646 86.639 62.5581 87.118 62.9289C91.8922 66.5804 94.455 71.5135 95.1975 77.4543C95.3811 78.9294 94.3352 80.2191 92.9461 80.4206C91.7166 80.5899 90.4712 79.7596 90.2316 78.3329C89.6888 75.1005 88.8185 72.0213 86.615 69.5225C85.7129 68.4988 84.6431 67.6363 83.6691 66.6771C82.8468 65.8629 82.4556 64.807 83.0943 63.8075C83.5813 63.0498 84.4515 62.5339 85.1301 61.9374V61.9293Z" fill="black"/>
<path d="M77.9046 63.7027C75.5095 63.5738 73.9207 62.3566 73.9926 60.7041C74.0564 59.229 75.3099 58.165 76.8747 58.2698C79.2538 58.423 80.8186 59.6885 80.6988 61.3571C80.5871 62.808 79.4215 63.7914 77.9046 63.7108V63.7027Z" fill="black"/>
</svg>
