<svg width="120" height="145" viewBox="0 0 120 145" fill="none" xmlns="http://www.w3.org/2000/svg">
<path d="M100.113 0C101.773 0.835502 103.605 1.41393 105.061 2.55943C109.342 5.93169 110.721 12.0448 108.636 17.3376C108.47 17.7573 108.304 18.1769 108.111 18.6608C109.404 18.812 110.621 18.8234 111.779 19.1145C116.724 20.3545 119.943 24.8874 119.981 30.6414C120.019 36.2517 119.988 41.8658 119.988 47.4762C119.988 65.8648 119.995 84.2572 119.988 102.646C119.988 108.528 116.959 113.061 112.066 114.411C110.911 114.728 109.68 114.827 108.484 114.827C95.8909 114.857 83.2977 114.846 70.7045 114.846H68.9168C69.9438 119.575 70.9327 124.153 71.9458 128.822C73.8787 128.822 75.7286 128.822 77.5751 128.822C83.1801 128.822 86.3198 132.198 86.3924 138.293C86.3924 138.527 86.4097 138.761 86.4304 139.226C87.8689 139.226 89.3142 139.226 90.7595 139.226C91.9663 139.226 93.1765 139.211 94.3833 139.23C96.005 139.257 97.1806 140.474 97.1633 142.073C97.146 143.68 95.9773 144.867 94.3383 144.867C86.6171 144.878 78.8994 144.871 71.1782 144.871C56.0851 144.871 40.9885 144.871 25.8954 144.871C23.8864 144.871 22.5967 143.468 22.8836 141.631C23.1084 140.187 24.0939 139.245 25.5046 139.234C28.1325 139.207 30.7639 139.226 33.6062 139.226C33.6062 138.686 33.6062 138.194 33.6062 137.703C33.6373 132.576 36.9671 128.894 41.6628 128.826C43.7305 128.796 45.7982 128.822 48.0389 128.822C49.0416 124.221 50.0444 119.632 51.0886 114.846C50.4109 114.846 49.9061 114.846 49.4012 114.846C36.5937 114.846 23.7827 114.861 10.9751 114.838C5.73314 114.83 1.59766 111.428 0.383982 106.12C0.114277 104.948 0.0209173 103.697 0.0209173 102.483C-0.00328701 78.7262 0.000170754 54.9617 0.000170754 31.1971C0.000170754 23.6549 4.41228 18.8082 11.3071 18.8045C33.907 18.7969 56.5069 18.7931 79.1034 18.8272C80.2168 18.8272 80.8911 18.5096 81.51 17.451C83.7437 13.6478 86.1192 9.93907 88.3771 6.15096C90.2063 3.08871 92.6198 0.998066 95.9358 0.245736C96.043 0.223053 96.1294 0.0831721 96.2228 0C97.516 0 98.8127 0 100.106 0L100.113 0ZM5.3597 90.1473C5.3597 95.0431 5.26634 99.7045 5.39774 104.358C5.45998 106.623 7.44819 108.634 9.53322 108.967C10.2974 109.088 11.0788 109.107 11.8534 109.107C43.9414 109.114 76.0295 109.111 108.121 109.111C108.508 109.111 108.899 109.118 109.286 109.099C112.696 108.925 114.673 106.71 114.698 102.96C114.725 99.092 114.708 95.2245 114.698 91.3608C114.698 91.0017 114.632 90.6387 114.587 90.1473H112.734C86.7243 90.1473 60.7185 90.1473 34.7092 90.1435C34.0661 90.1435 33.4091 90.1397 32.7798 90.0074C31.5938 89.7617 30.8019 88.7182 30.757 87.4404C30.7086 86.0454 31.2964 85.0511 32.4928 84.6314C33.1325 84.4084 33.8482 84.3857 34.5294 84.3857C60.6666 84.3744 86.8039 84.3744 112.941 84.3744C113.487 84.3744 114.034 84.3744 114.701 84.3744V82.6693C114.701 65.551 114.701 48.4327 114.701 31.3143C114.701 30.7964 114.701 30.2747 114.663 29.7605C114.469 26.8948 112.371 24.6568 109.753 24.5736C108.2 24.5244 106.645 24.6265 105.095 24.532C104.127 24.4715 103.519 24.8458 102.917 25.6548C95.8597 35.1175 88.7886 44.5689 81.6656 53.9712C80.611 55.3624 79.8399 56.61 80.611 58.4587C80.8323 58.988 80.7839 59.6609 80.8288 60.2733C81.3371 67.411 77.3918 73.7397 71.3269 75.0629C68.9583 75.5808 66.4376 75.4598 63.9965 75.354C60.1445 75.1876 56.545 75.5732 53.5194 78.6317C52.043 80.1212 49.9026 79.2744 49.3667 77.1006C48.0492 71.7549 47.2643 66.36 47.8003 60.7686C48.7235 51.1509 55.1964 44.4253 64.0276 44.1644C64.8574 44.1417 65.3381 43.8544 65.7945 43.0983C69.2626 37.3594 72.7757 31.6546 76.275 25.9384C76.5066 25.5603 76.7106 25.1634 77.053 24.5547H75.4866C54.0934 24.5547 32.7002 24.6114 11.3105 24.498C7.80088 24.4791 5.21794 26.9856 5.2456 31.1291C5.35279 48.3419 5.29055 65.5548 5.29055 82.7638C5.29055 83.2629 5.29055 83.7581 5.29055 84.3706C5.90603 84.3706 6.33134 84.3706 6.75318 84.3706C8.60654 84.3706 10.4634 84.3403 12.3167 84.3819C14.132 84.4235 15.28 85.6598 15.2143 87.4026C15.1521 89.0131 14.0594 90.0906 12.3202 90.1246C10.0415 90.17 7.76285 90.1359 5.36662 90.1359L5.3597 90.1473ZM85.6109 39.779C87.6648 37.0456 89.6046 34.4635 91.541 31.8776C95.3618 26.7739 99.2276 21.7117 102.99 16.555C105.424 13.2168 104.487 8.47978 101.133 6.50255C98.2421 4.79752 94.9503 5.73888 93.0002 8.9032C88.1178 16.831 83.2666 24.7815 78.405 32.7245C78.2459 32.9815 78.1387 33.2764 77.9866 33.5978C80.5349 35.6619 83.0176 37.677 85.6075 39.7752L85.6109 39.779ZM53.5021 71.3579C55.3832 70.8438 57.1051 70.133 58.872 69.944C61.3028 69.6831 63.7682 69.7966 66.2198 69.7928C68.3774 69.7928 70.5558 69.9213 72.4507 68.496C75.1235 66.481 76.1851 62.9538 75.3967 59.0749C75.1719 57.9634 74.7466 57.1355 73.858 56.4625C71.7695 54.8823 69.6534 53.3096 67.7516 51.4798C66.1195 49.9071 64.4494 49.6046 62.4163 50.0734C57.8451 51.1206 54.6916 53.801 53.4745 58.8783C52.4683 63.0823 52.8313 67.2711 53.5021 71.3579ZM38.7894 139.136H81.1435C81.3682 135.597 80.5315 134.614 77.3918 134.614C66.2647 134.614 55.1411 134.614 44.014 134.614C43.1531 134.614 42.2886 134.588 41.4276 134.629C39.8993 134.701 38.9519 135.68 38.7997 137.344C38.7479 137.899 38.7928 138.47 38.7928 139.136H38.7894ZM53.4364 128.743H66.5448C65.5282 124.07 64.5359 119.515 63.5366 114.921H56.4412C55.4419 119.518 54.4496 124.074 53.433 128.743H53.4364ZM75.0025 38.297C73.2978 41.087 71.7107 43.6881 70.0925 46.3344C72.3297 48.1453 74.4666 49.8768 76.683 51.6726C78.564 49.1699 80.3897 46.739 82.288 44.2136C79.8676 42.2477 77.4956 40.3234 75.0025 38.297Z" fill="black"/>
<path d="M85.6102 39.779C83.0203 37.677 80.5342 35.6657 77.9893 33.6015C78.1414 33.2764 78.2486 32.9853 78.4076 32.7282C83.2693 24.7853 88.1205 16.8348 93.0029 8.90698C94.953 5.73888 98.2448 4.8013 101.136 6.50633C104.49 8.48356 105.427 13.2206 102.992 16.5588C99.2338 21.7155 95.368 26.7814 91.5437 31.8814C89.6073 34.4673 87.6641 37.0456 85.6136 39.7828L85.6102 39.779Z" fill="#FBB040"/>
<path d="M53.5016 71.3578C52.8308 67.2673 52.4678 63.0822 53.474 58.8782C54.6911 53.8009 57.8446 51.1205 62.4157 50.0733C64.4489 49.6083 66.119 49.9107 67.7511 51.4797C69.6528 53.3095 71.769 54.8822 73.8575 56.4624C74.7496 57.1354 75.1714 57.9633 75.3962 59.0748C76.1846 62.9536 75.123 66.4809 72.4502 68.4959C70.5553 69.925 68.3769 69.7927 66.2193 69.7927C63.7677 69.7927 61.3023 69.683 58.8715 69.9439C57.1046 70.1329 55.3827 70.8437 53.5016 71.3578Z" fill="#FBB040"/>
<path d="M38.7925 139.132C38.7925 138.467 38.7475 137.896 38.7994 137.34C38.955 135.677 39.9024 134.697 41.4273 134.626C42.2883 134.584 43.1527 134.61 44.0137 134.61C55.1408 134.61 66.2644 134.61 77.3915 134.61C80.5346 134.61 81.3679 135.593 81.1432 139.132H38.789H38.7925Z" fill="#FDB81B"/>
<path d="M53.4404 128.739C54.457 124.066 55.4494 119.511 56.4487 114.917H63.544C64.5433 119.515 65.5357 124.066 66.5523 128.739H53.4439H53.4404Z" fill="#FBB040"/>
<path d="M75.0057 38.2932C77.5022 40.3196 79.8743 42.2439 82.2912 44.2098C80.3929 46.7352 78.5672 49.1623 76.6862 51.6688C74.4698 49.873 72.3329 48.1453 70.0957 46.3307C71.7139 43.6843 73.301 41.0833 75.0057 38.2932Z" fill="#FBB040"/>
</svg>
