<svg width="124" height="111" viewBox="0 0 124 111" fill="none" xmlns="http://www.w3.org/2000/svg">
<g clip-path="url(#clip0_341_154)">
<path d="M54.8856 93.7016C68.3086 93.7016 79.1901 82.7917 79.1901 69.3336C79.1901 55.8755 68.3086 44.9656 54.8856 44.9656C41.4626 44.9656 30.5811 55.8755 30.5811 69.3336C30.5811 82.7917 41.4626 93.7016 54.8856 93.7016Z" fill="#FBB040"/>
<path d="M4.5741 17.7569C7.57246 17.7569 10.52 17.7569 13.4675 17.7569C20.2011 17.7569 26.9348 17.7315 33.6684 17.7697C35.5614 17.7697 37.1622 17.2474 38.5598 15.9227C40.4401 14.1393 42.727 13.3113 45.3442 13.3113C66.9298 13.3241 88.5282 13.3113 110.114 13.3113C110.431 13.3113 110.762 13.2859 111.079 13.3368C112.236 13.5406 112.833 14.2922 112.896 15.4386C112.96 16.5978 112.197 17.5531 111.092 17.706C110.635 17.7697 110.177 17.7315 109.707 17.7315C88.579 17.7315 67.4507 17.7442 46.3225 17.7187C44.2262 17.7187 42.4983 18.2665 40.9356 19.7314C39.1696 21.4 36.9716 22.1771 34.5069 22.1771C25.0544 22.1771 15.5893 22.1771 6.1368 22.1771C5.62861 22.1771 5.13312 22.1771 4.40894 22.1771C4.40894 22.7121 4.40894 23.1961 4.40894 23.6929C4.40894 43.6281 4.40894 63.5632 4.40894 83.4857C4.40894 87.0523 6.1241 88.7847 9.65607 88.7847C14.6872 88.7847 19.7184 88.7847 24.7368 88.7847C26.5409 88.7847 27.6462 90.3133 26.9856 91.8546C26.579 92.7972 25.8167 93.2176 24.7876 93.2176C19.2991 93.2048 13.8106 93.2685 8.32205 93.1921C3.86262 93.1284 0.0257386 89.1541 0.0130336 84.6194C-0.0250811 75.9702 0.0130336 67.321 0.0130336 58.6718C0.0130336 42.2524 0.0130336 25.8329 0.0130336 9.42621C0.000328722 3.68132 3.69746 0 9.42738 0C44.493 0 79.5458 0 114.611 0C120.329 0 124 3.69406 124 9.46443C124 34.2528 124 59.0412 124 83.8296C124 89.4853 120.29 93.2176 114.675 93.2176C109.644 93.2176 104.613 93.2176 99.5942 93.2176C98.2856 93.2176 97.4725 92.5425 97.2438 91.3196C97.0405 90.1859 97.6376 89.3452 98.6921 88.9121C99.0987 88.7465 99.5942 88.7847 100.052 88.7847C104.854 88.7847 109.644 88.7847 114.446 88.7847C117.813 88.7847 119.579 87.0141 119.579 83.6513C119.579 58.952 119.579 34.2655 119.579 9.56633C119.579 6.19073 117.813 4.42013 114.459 4.42013C79.495 4.42013 44.5184 4.42013 9.55443 4.42013C6.21303 4.42013 4.43435 6.20347 4.43435 9.55359C4.43435 12.1394 4.43435 14.738 4.44705 17.3238C4.44705 17.413 4.49787 17.4894 4.5741 17.7442V17.7569Z" fill="black"/>
<path d="M79.8887 83.957C82.0993 86.1607 84.2592 88.3134 86.4063 90.4662C89.3793 93.4342 92.3649 96.4022 95.3125 99.3956C98.0567 102.185 98.1584 106.325 95.5793 108.987C92.9493 111.701 88.7567 111.701 85.9235 108.898C81.0956 104.121 76.3313 99.2937 71.5416 94.466C71.2239 94.1348 70.9698 93.7399 70.7793 93.4979C68.1239 94.5806 65.7735 95.7525 63.2834 96.5041C46.5256 101.574 31.3051 90.3898 27.392 75.7282C23.0977 59.6272 34.3161 43.4116 49.7018 40.52C55.7748 39.3736 61.619 39.9978 67.26 42.5072C68.2637 42.953 69.0006 43.5772 69.026 44.7491C69.0768 46.5069 67.3871 47.4623 65.5321 46.6471C62.1907 45.1949 58.7223 44.3797 55.076 44.3924C44.0735 44.4179 33.7698 52.8505 31.5211 63.6524C28.51 78.0847 38.4452 91.5489 53.1448 93.0393C58.8875 93.6253 64.1092 92.2877 68.8735 89.065C70.6395 87.8676 71.3383 87.9313 72.8375 89.4471C78.1862 94.8099 83.5223 100.185 88.8838 105.535C90.4211 107.064 92.5428 106.746 92.835 104.835C92.9493 104.058 92.4284 102.937 91.8313 102.325C87.753 98.1091 83.5731 93.9819 79.4313 89.8293C78.2879 88.6829 77.1444 87.5364 76.0137 86.39C74.451 84.8232 74.3748 84.1099 75.5817 82.3011C78.4784 77.9828 79.8252 73.1933 79.6727 68.0344C79.5329 63.3722 78.1989 59.054 75.3911 55.067C75.01 55.4109 74.667 55.6911 74.3493 56.0096C69.2293 61.143 64.1219 66.2892 59.0018 71.4354C57.4391 73.0022 56.3719 72.9895 54.7838 71.41C52.9289 69.5502 51.0866 67.665 49.0793 65.6523C47.1608 67.5885 45.3059 69.4738 43.4383 71.359C42.7903 72.0087 42.1551 72.6965 41.4436 73.2825C40.4526 74.0722 39.2965 73.9449 38.4834 73.0022C37.6957 72.0851 37.5432 71.0151 38.4071 70.1234C41.4309 67.0153 44.4928 63.9327 47.5928 60.8883C48.6092 59.8947 49.7399 60.0476 50.8834 61.1812C52.878 63.1557 54.8473 65.1555 56.6895 66.9898C65.71 57.9458 74.6543 48.9781 83.662 39.9468C82.5821 39.9468 81.4514 39.9595 80.3207 39.9468C78.8469 39.9213 77.8305 39.0169 77.8178 37.7431C77.8178 36.4693 78.8342 35.5394 80.3079 35.5267C83.2555 35.5139 86.2157 35.5012 89.1633 35.5267C90.8403 35.5267 91.6661 36.2782 91.6916 37.9469C91.7424 40.9531 91.7424 43.9593 91.6916 46.9655C91.6661 48.5068 90.7387 49.3985 89.4047 49.3603C88.0834 49.3221 87.2575 48.4049 87.2067 46.8509C87.1686 45.7554 87.2067 44.6599 87.2067 43.6918C84.437 46.456 81.6801 49.2074 78.8215 52.0608C82.0231 56.5573 83.878 61.8436 84.094 67.665C84.31 73.4481 82.8997 78.8236 79.8506 83.957H79.8887Z" fill="black"/>
<path d="M14.3822 11.0822C14.3822 12.3815 13.4294 13.3241 12.1208 13.2986C10.8757 13.2732 9.97363 12.356 9.97363 11.1077C9.97363 9.79566 10.9265 8.86578 12.2351 8.89126C13.4802 8.91673 14.3822 9.83388 14.3822 11.0695V11.0822Z" fill="black"/>
<path d="M20.9755 8.89123C22.2333 8.85302 23.1861 9.71921 23.2497 10.9548C23.3132 12.2668 22.4111 13.2604 21.1152 13.2986C19.8701 13.3368 18.9046 12.4579 18.841 11.235C18.7775 9.92302 19.6796 8.92944 20.9755 8.90397V8.89123Z" fill="black"/>
<path d="M32.105 11.0567C32.1177 12.356 31.1649 13.3113 29.869 13.2986C28.6239 13.2859 27.7218 12.3815 27.6964 11.1331C27.6837 9.82109 28.6239 8.87847 29.9325 8.90395C31.1903 8.91668 32.0923 9.82109 32.105 11.0694V11.0567Z" fill="black"/>
</g>
<defs>
<clipPath id="clip0_341_154">
<rect width="124" height="111" fill="white"/>
</clipPath>
</defs>
</svg>
